<svg width="202" height="360" viewBox="0 0 202 360" fill="none" xmlns="http://www.w3.org/2000/svg">
<path opacity="0.8" d="M113.584 108.377L93.7479 120.777L113.584 131.935L134.659 120.777L113.584 108.377Z" fill="#16326A"/>
<path opacity="0.7" d="M113.584 155.487L134.66 144.33V120.774L113.584 131.932V155.487Z" fill="#1D438C"/>
<path opacity="0.9" d="M93.7479 120.774V144.329L113.584 155.486V131.931L93.7479 120.774Z" fill="#002663"/>
<path opacity="0.8" d="M35.603 0L0.377991 22.016L35.603 41.83L73.03 22.016L35.603 0Z" fill="#16326A"/>
<path opacity="0.7" d="M35.603 83.6602L73.0289 63.8461V22.0161L35.603 41.8301V83.6602Z" fill="#1D438C"/>
<path opacity="0.9" d="M0.377991 22.0161V63.8461L35.603 83.6602V41.8301L0.377991 22.0161Z" fill="#002663"/>
<path opacity="0.8" d="M35.603 275.695L0.377991 297.711L35.603 317.525L73.03 297.711L35.603 275.695Z" fill="#16326A"/>
<path opacity="0.7" d="M35.603 359.355L73.0289 339.541V297.711L35.603 317.525V359.355Z" fill="#1D438C"/>
<path opacity="0.9" d="M0.377991 297.711V339.541L35.603 359.355V317.526L0.377991 297.711Z" fill="#002663"/>
<path opacity="0.8" d="M186.997 162.565L172.876 171.39L186.997 179.333L201.997 171.39L186.997 162.565Z" fill="#16326A"/>
<path opacity="0.7" d="M186.997 196.101L201.997 188.158V171.39L186.997 179.333V196.101Z" fill="#1D438C"/>
<path opacity="0.9" d="M172.876 171.39V188.158L186.997 196.101V179.333L172.876 171.39Z" fill="#002663"/>
<path opacity="0.8" d="M35.4139 162.565L21.293 171.39L35.4139 179.333L50.414 171.39L35.4139 162.565Z" fill="#16326A"/>
<path opacity="0.7" d="M35.414 196.101L50.4139 188.158V171.39L35.414 179.333V196.101Z" fill="#1D438C"/>
<path opacity="0.9" d="M21.293 171.39V188.158L35.4139 196.101V179.333L21.293 171.39Z" fill="#002663"/>
<path opacity="0.8" d="M186.997 257.369L172.876 266.194L186.997 274.137L201.997 266.194L186.997 257.369Z" fill="#16326A"/>
<path opacity="0.7" d="M186.997 290.905L201.997 282.962V266.191L186.997 274.134V290.905Z" fill="#1D438C"/>
<path opacity="0.9" d="M172.876 266.191V282.959L186.997 290.902V274.134L172.876 266.191Z" fill="#002663"/>
<path opacity="0.8" d="M113.584 203.18L93.7479 215.58L113.584 226.738L134.659 215.58L113.584 203.18Z" fill="#16326A"/>
<path opacity="0.7" d="M113.584 250.291L134.66 239.133V215.578L113.584 226.736V250.291Z" fill="#1D438C"/>
<path opacity="0.9" d="M93.7479 215.578V239.133L113.584 250.291V226.736L93.7479 215.578Z" fill="#002663"/>
</svg>
