<svg width="123" height="258" viewBox="0 0 123 258" fill="none" xmlns="http://www.w3.org/2000/svg">
<g clip-path="url(#clip0)">
<path opacity="0.8" d="M31.5603 0L0 19.7284L31.5603 37.416L65.1678 19.7284L31.5603 0Z" fill="#16326A"/>
<path opacity="0.7" d="M31.5603 74.8319L65.1678 57.1444V19.7284L31.5603 37.416V74.8319Z" fill="#1D438C"/>
<path opacity="0.9" d="M0 19.7284V57.1444L31.5603 74.8319V37.416L0 19.7284Z" fill="#002663"/>
<path opacity="0.8" d="M102.699 80.6144L83.4216 92.5195L102.699 103.404L123 92.5195L102.699 80.6144Z" fill="#16326A"/>
<path opacity="0.7" d="M102.699 126.024L123 115.309V92.5194L102.699 103.404V126.024Z" fill="#1D438C"/>
<path opacity="0.9" d="M83.4216 92.5194V115.309L102.699 126.024V103.404L83.4216 92.5194Z" fill="#002663"/>
<path opacity="0.8" d="M31.5603 131.976L0 151.535L31.5603 169.392L65.1678 151.535L31.5603 131.976Z" fill="#16326A"/>
<path opacity="0.7" d="M31.5603 206.808L65.1678 188.951V151.535L31.5603 169.392V206.808Z" fill="#1D438C"/>
<path opacity="0.9" d="M0 151.535V188.951L31.5603 206.808V169.392L0 151.535Z" fill="#002663"/>
<path opacity="0.8" d="M102.699 212.591L83.4216 224.496L102.699 235.21L123 224.496L102.699 212.591Z" fill="#16326A"/>
<path opacity="0.7" d="M102.699 258L123 247.285V224.496L102.699 235.21V258Z" fill="#1D438C"/>
<path opacity="0.9" d="M83.4216 224.496V247.285L102.699 258V235.21L83.4216 224.496Z" fill="#002663"/>
</g>
<defs>
<clipPath id="clip0">
<rect width="123" height="258" fill="white"/>
</clipPath>
</defs>
</svg>
