<svg width="1440" height="158" viewBox="0 0 1440 158" fill="none" xmlns="http://www.w3.org/2000/svg">
<path d="M0 64.1309C0 64.1309 197.537 -9.58786 422.293 28.0868C422.293 28.0868 550.282 62.5003 672.867 47.911C792.45 27.7435 1120.5 -47.5 1440 47.912V157.502H0V64.1309Z" fill="#D9E1F0"/>
<path d="M0 113C71.0493 91.9998 124.687 66.1002 273.19 61.9998C418.19 60.6846 527.466 100.517 678.671 86.9001C829.876 73.2836 860.297 58.1176 971.675 50.9999C1124 41.2654 1287 57.3817 1440 86.9V158H0V113Z" fill="#112347"/>
<path d="M1440 129.955C1440 104.5 1174.5 97.5 1174.5 97.5C916.273 97.4999 903.5 148 528.634 128.604C136.79 97.2934 11.8164 154.396 0 158H1440V129.955Z" fill="#1D438C"/>
</svg>
