<svg width="1070" height="750" viewBox="0 0 1070 750" fill="none" xmlns="http://www.w3.org/2000/svg">
<g clip-path="url(#clip0)">
<g opacity="0.7">
<path opacity="0.7" d="M100.2 363.4L4.79993 418.5C1.89993 420.2 0.69993 423.9 2.09993 426.9L35.6999 499.2C36.5999 501.2 38.4999 502.6 40.6999 502.9L175.1 523.7C176.6 523.9 178.1 523.6 179.4 522.9L274.8 467.8C277.7 466.1 278.9 462.4 277.5 459.4L243.9 387.1C243 385.1 241.1 383.7 238.9 383.4L104.5 362.6C103 362.4 101.5 362.7 100.2 363.4Z" stroke="#002663" stroke-width="3" stroke-miterlimit="10" stroke-linecap="round" stroke-linejoin="round"/>
<path opacity="0.7" d="M363.4 318.1L268 373.2C265.1 374.9 263.9 378.6 265.3 381.6L298.9 453.9C299.8 455.9 301.7 457.3 303.9 457.6L438.3 478.4C439.8 478.6 441.3 478.3 442.6 477.6L538 422.5C540.9 420.8 542.1 417.1 540.7 414.1L507.1 341.8C506.2 339.8 504.3 338.4 502.1 338.1L367.7 317.3C366.2 317.1 364.7 317.3 363.4 318.1Z" stroke="#002663" stroke-width="3" stroke-miterlimit="10" stroke-linecap="round" stroke-linejoin="round"/>
<path opacity="0.7" d="M167.5 205L72.1 260.1C69.2 261.8 68 265.5 69.4 268.5L103 340.8C103.9 342.8 105.8 344.2 108 344.5L242.4 365.3C243.9 365.5 245.4 365.2 246.7 364.5L342.1 309.4C345 307.7 346.2 304 344.8 301L311.2 228.7C310.3 226.7 308.4 225.3 306.2 225L171.8 204.2C170.3 204 168.8 204.2 167.5 205Z" stroke="#002663" stroke-width="3" stroke-miterlimit="10" stroke-linecap="round" stroke-linejoin="round"/>
<path opacity="0.7" d="M430.7 159.7L335.3 214.8C332.4 216.5 331.2 220.2 332.6 223.2L366.2 295.5C367.1 297.5 369 298.9 371.2 299.2L505.5 320C507 320.2 508.5 319.9 509.8 319.2L605.2 264.1C608.1 262.4 609.3 258.7 607.9 255.7L574.3 183.4C573.4 181.4 571.5 180 569.3 179.7L435 158.9C433.5 158.6 432 158.9 430.7 159.7Z" stroke="#002663" stroke-width="3" stroke-miterlimit="10" stroke-linecap="round" stroke-linejoin="round"/>
<path opacity="0.7" d="M626.6 272.8L531.2 327.9C528.3 329.6 527.1 333.3 528.5 336.3L562.1 408.6C563 410.6 564.9 412 567.1 412.3L701.5 433.1C703 433.3 704.5 433 705.8 432.3L801.2 377.2C804.1 375.5 805.3 371.8 803.9 368.8L770.3 296.5C769.4 294.5 767.5 293.1 765.3 292.8L630.9 272C629.4 271.7 627.9 272 626.6 272.8Z" stroke="#002663" stroke-width="3" stroke-miterlimit="10" stroke-linecap="round" stroke-linejoin="round"/>
<path opacity="0.7" d="M889.7 227.4L794.3 282.5C791.4 284.2 790.2 287.9 791.6 290.9L825.2 363.2C826.1 365.2 828 366.6 830.2 366.9L964.6 387.7C966.1 387.9 967.6 387.6 968.9 386.9L1064.3 331.8C1067.2 330.1 1068.4 326.4 1067 323.4L1033.4 251.1C1032.5 249.1 1030.6 247.7 1028.4 247.4L894 226.6C892.5 226.4 891 226.7 889.7 227.4Z" stroke="#002663" stroke-width="3" stroke-miterlimit="10" stroke-linecap="round" stroke-linejoin="round"/>
<path opacity="0.7" d="M291.8 474L196.4 529.1C193.5 530.8 192.3 534.5 193.7 537.5L227.3 609.8C228.2 611.8 230.1 613.2 232.3 613.5L366.7 634.3C368.2 634.5 369.7 634.2 371 633.5L466.4 578.4C469.3 576.7 470.5 573 469.1 570L435.5 497.7C434.6 495.7 432.7 494.3 430.5 494L296.1 473.2C294.6 473 293.1 473.3 291.8 474Z" stroke="#002663" stroke-width="3" stroke-miterlimit="10" stroke-linecap="round" stroke-linejoin="round"/>
<path opacity="0.7" d="M554.9 428.7L459.5 483.8C456.6 485.5 455.4 489.2 456.8 492.2L490.4 564.5C491.3 566.5 493.2 567.9 495.4 568.2L629.8 589C631.3 589.2 632.8 588.9 634.1 588.2L729.5 533.1C732.4 531.4 733.6 527.7 732.2 524.7L698.6 452.4C697.7 450.4 695.8 449 693.6 448.7L559.2 427.9C557.7 427.7 556.2 427.9 554.9 428.7Z" stroke="#002663" stroke-width="3" stroke-miterlimit="10" stroke-linecap="round" stroke-linejoin="round"/>
<path opacity="0.7" d="M818.1 383.4L722.7 438.5C719.8 440.2 718.6 443.9 720 446.9L753.6 519.2C754.5 521.2 756.4 522.6 758.6 522.9L893 543.7C894.5 543.9 896 543.6 897.3 542.9L992.7 487.8C995.6 486.1 996.8 482.4 995.4 479.4L961.8 407.1C960.9 405.1 959 403.7 956.8 403.4L822.4 382.6C820.9 382.3 819.4 382.6 818.1 383.4Z" stroke="#002663" stroke-width="3" stroke-miterlimit="10" stroke-linecap="round" stroke-linejoin="round"/>
<path opacity="0.7" d="M478.3 587.9L382.9 643C380 644.7 378.8 648.4 380.2 651.4L413.8 723.7C414.7 725.7 416.6 727.1 418.8 727.4L553.2 748.2C554.7 748.4 556.2 748.1 557.5 747.4L652.9 692.3C655.8 690.6 657 686.9 655.6 683.9L622 611.7C621.1 609.7 619.2 608.3 617 608L482.6 587.2C481.1 586.9 479.6 587.2 478.3 587.9Z" stroke="#002663" stroke-width="3" stroke-miterlimit="10" stroke-linecap="round" stroke-linejoin="round"/>
<path opacity="0.7" d="M741.5 542.6L646.1 597.7C643.2 599.4 642 603.1 643.4 606.1L677 678.4C677.9 680.4 679.8 681.8 682 682.1L816.4 703C817.9 703.2 819.4 702.9 820.7 702.2L916.1 647.1C919 645.4 920.2 641.7 918.8 638.7L885.2 566.4C884.3 564.4 882.4 563 880.2 562.7L745.8 541.9C744.3 541.6 742.8 541.9 741.5 542.6Z" stroke="#002663" stroke-width="3" stroke-miterlimit="10" stroke-linecap="round" stroke-linejoin="round"/>
<path opacity="0.7" d="M236.5 47.7002L141 102.8C138.1 104.5 136.9 108.2 138.3 111.2L171.9 183.5C172.8 185.5 174.7 186.9 176.9 187.2L311.3 208C312.8 208.2 314.3 207.9 315.6 207.2L411 152.1C413.9 150.4 415.1 146.7 413.7 143.7L380.1 71.4002C379.2 69.4002 377.3 68.0002 375.1 67.7002L240.7 46.9002C239.3 46.7002 237.7 47.0002 236.5 47.7002Z" stroke="#002663" stroke-width="3" stroke-miterlimit="10" stroke-linecap="round" stroke-linejoin="round"/>
<path opacity="0.7" d="M499.6 2.39995L404.2 57.5C401.3 59.2 400.1 62.9 401.5 65.9L435.1 138.2C436 140.2 437.9 141.6 440.1 141.9L574.5 162.7C576 162.9 577.5 162.6 578.8 161.9L674.2 106.8C677.1 105.1 678.3 101.4 676.9 98.4L643.3 26.1C642.4 24.1 640.5 22.7 638.3 22.4L503.9 1.59995C502.4 1.29995 500.9 1.59995 499.6 2.39995Z" stroke="#002663" stroke-width="3" stroke-miterlimit="10" stroke-linecap="round" stroke-linejoin="round"/>
<path opacity="0.7" d="M693.9 114.3L598.5 169.4C595.6 171.1 594.4 174.8 595.8 177.8L629.4 250.1C630.3 252.1 632.2 253.5 634.4 253.8L768.8 274.6C770.3 274.8 771.8 274.5 773.1 273.8L868.5 218.7C871.4 217 872.6 213.3 871.2 210.3L837.5 138C836.6 136 834.7 134.6 832.5 134.3L698.1 113.5C696.7 113.3 695.2 113.6 693.9 114.3Z" stroke="#002663" stroke-width="3" stroke-miterlimit="10" stroke-linecap="round" stroke-linejoin="round"/>
</g>
<g opacity="0.3">
<g opacity="0.3">
<g opacity="0.3">
<g opacity="0.3">
<path opacity="0.3" d="M489.3 349.7C480.9 354.5 480.9 362.4 489.3 367.3L631.8 449.5C634.1 450.8 637.8 450.8 640.1 449.5C642.4 448.2 642.4 446 640.1 444.7L497.6 362.5C493.8 360.3 493.8 356.8 497.6 354.6L511.4 346.6C509.9 344.3 508.5 341.9 507.1 339.4L489.3 349.7Z" fill="#BBFCF6"/>
<path opacity="0.3" d="M691.1 415.2L548.6 333C540.2 328.2 526.6 328.2 518.2 333L507.2 339.4C508.6 341.9 510 344.3 511.5 346.6L526.6 337.9C530.4 335.7 536.5 335.7 540.3 337.9L682.8 420.1C685.1 421.4 688.8 421.4 691.1 420.1C693.4 418.7 693.4 416.6 691.1 415.2Z" fill="#BBFCF6"/>
</g>
<path opacity="0.3" d="M692.9 417.8V217.5L543.5 134.3L522.7 132.9L502.5 146L490.1 156.8L635.6 387.4L683.1 415.4L692.9 417.8Z" fill="url(#paint0_linear)"/>
<path opacity="0.3" d="M637.6 443.1L682.3 417.4V223.8L636.3 245.1L637.6 443.1Z" fill="#47BFB3"/>
<path opacity="0.3" d="M483 158.3V358.3L639.8 448L641.9 447.1V246.8L483 158.3Z" fill="url(#paint1_linear)"/>
<g opacity="0.3">
<path opacity="0.3" d="M571.2 160L540 142.1C536.2 140.3 530.6 140.5 527.1 142.5L498.2 159.2C496 160.5 495.1 162.3 495.5 163.9L574.2 210.9L637.4 249.7L682.2 223.7L571.2 160Z" fill="white"/>
</g>
<path opacity="0.3" d="M636.3 243.7V442.4V446.6V450.4C637.7 450.4 639.1 450 640.2 449.4C641.3 448.7 641.9 447.9 641.9 447V246.8L636.3 243.7Z" fill="url(#paint2_linear)"/>
<path opacity="0.3" d="M692.9 220V217.5H692.1L691.8 219.2L692.9 220Z" fill="white"/>
<path opacity="0.3" d="M641.9 249.4V246.9L641.1 248L641.9 249.4Z" fill="white"/>
<g opacity="0.3">
<path opacity="0.3" d="M631.8 249.2L489.3 167C480.9 162.2 480.9 154.3 489.3 149.4L518.2 132.7C526.6 127.9 540.2 127.9 548.6 132.7L691.1 215C693.4 216.3 693.4 218.5 691.1 219.8C688.8 221.1 685.1 221.1 682.8 219.8L540.3 137.6C536.5 135.4 530.4 135.4 526.6 137.6L497.7 154.3C493.9 156.5 493.9 160 497.7 162.2L640.2 244.4C642.5 245.7 642.5 247.9 640.2 249.2C637.9 250.5 634.1 250.5 631.8 249.2Z" fill="#BBFCF6"/>
</g>
<path opacity="0.3" d="M594.7 344L520.6 301.3V227.1L594.7 269.8V344Z" fill="white"/>
<g opacity="0.3">
<path opacity="0.3" d="M691.1 219.8C688.8 221.1 685.1 221.1 682.8 219.8L540.3 137.6C536.5 135.4 530.4 135.4 526.6 137.6L497.7 154.3C495.2 155.7 494.4 157.7 495.1 159.6C495.5 158.6 496.3 157.7 497.7 157L526.6 140.3C530.4 138.1 536.5 138.1 540.3 140.3L682.8 222.5C685.1 223.8 688.8 223.8 691.1 222.5C692.8 221.5 693.3 220 692.4 218.8C692.1 219.1 691.7 219.5 691.1 219.8Z" fill="white"/>
<path opacity="0.3" d="M640.2 249.2C637.9 250.5 634.2 250.5 631.9 249.2L489.3 167C485.7 164.9 483.6 162.3 483.1 159.5C482.4 163.1 484.5 166.8 489.3 169.6L631.8 251.8C634.1 253.1 637.8 253.1 640.1 251.8C641.8 250.8 642.3 249.3 641.4 248.1C641.1 248.5 640.7 248.9 640.2 249.2Z" fill="white"/>
</g>
</g>
<g opacity="0.3">
<g opacity="0.3">
<path opacity="0.3" d="M423.8 388.5C415.4 393.3 415.4 401.2 423.8 406.1L566.3 488.3C568.6 489.6 572.3 489.6 574.6 488.3C576.9 487 576.9 484.8 574.6 483.5L432.1 401.3C428.3 399.1 428.3 395.6 432.1 393.4L445.9 385.4C444.4 383.1 443 380.7 441.6 378.2L423.8 388.5Z" fill="#FF2C9C"/>
<path opacity="0.3" d="M625.6 454L483.1 371.8C474.7 367 461.1 367 452.7 371.8L441.7 378.2C443.1 380.7 444.5 383.1 446 385.4L461.1 376.7C464.9 374.5 471 374.5 474.8 376.7L617.3 458.9C619.6 460.2 623.3 460.2 625.6 458.9C627.9 457.5 627.9 455.4 625.6 454Z" fill="#D3008D"/>
</g>
<path opacity="0.3" d="M627.3 456.6L627.4 256.3L478 173.1L457.2 171.7L437 184.8L424.6 195.5L570.1 426.2L617.6 454.2L627.3 456.6Z" fill="#D3008D"/>
<path opacity="0.3" d="M572.1 481.9L616.8 456.1V262.5L570.7 283.9L572.1 481.9Z" fill="#E573B5"/>
<path opacity="0.3" d="M417.5 197.1V397.1L574.3 486.7L576.4 485.9V285.6L417.5 197.1Z" fill="#FF2C9C"/>
<g opacity="0.3">
<path opacity="0.3" d="M505.7 198.8L474.5 180.9C470.7 179.1 465.1 179.3 461.6 181.3L432.7 198C430.5 199.3 429.6 201.1 430 202.7L508.7 249.7L571.9 288.5L616.7 262.5L505.7 198.8Z" fill="white"/>
</g>
<path opacity="0.3" d="M570.7 282.5V481.2V485.4V489.2C572.1 489.2 573.5 488.8 574.6 488.2C575.7 487.5 576.3 486.7 576.3 485.8V285.6L570.7 282.5Z" fill="#D3008D"/>
<path opacity="0.3" d="M627.4 258.8V256.3H626.6L626.3 258L627.4 258.8Z" fill="white"/>
<path opacity="0.3" d="M576.4 288.2V285.6L575.6 286.7L576.4 288.2Z" fill="white"/>
<g opacity="0.3">
<path opacity="0.3" d="M566.3 288L423.8 205.8C415.4 201 415.4 193.1 423.8 188.2L452.7 171.5C461.1 166.7 474.7 166.7 483.1 171.5L625.6 253.7C627.9 255 627.9 257.2 625.6 258.5C623.3 259.8 619.6 259.8 617.3 258.5L474.8 176.3C471 174.1 464.9 174.1 461.1 176.3L432.2 193C428.4 195.2 428.4 198.7 432.2 200.9L574.7 283.1C577 284.4 577 286.6 574.7 287.9C572.4 289.3 568.6 289.3 566.3 288Z" fill="#FF2C9C"/>
</g>
<path opacity="0.3" d="M529.2 382.8L455.1 340.1V265.8L529.2 308.6V382.8Z" fill="white"/>
<g opacity="0.3">
<path opacity="0.3" d="M625.6 258.6C623.3 259.9 619.6 259.9 617.3 258.6L474.8 176.4C471 174.2 464.9 174.2 461.1 176.4L432.2 193C429.7 194.4 428.9 196.4 429.6 198.3C430 197.3 430.8 196.4 432.2 195.7L461.1 179C464.9 176.8 471 176.8 474.8 179L617.3 261.2C619.6 262.5 623.3 262.5 625.6 261.2C627.3 260.2 627.8 258.7 626.9 257.5C626.6 257.9 626.2 258.2 625.6 258.6Z" fill="white"/>
<path opacity="0.3" d="M574.7 288C572.4 289.3 568.7 289.3 566.4 288L423.9 205.8C420.3 203.7 418.2 201.1 417.7 198.3C417 201.9 419.1 205.6 423.9 208.4L566.4 290.6C568.7 291.9 572.4 291.9 574.7 290.6C576.4 289.6 576.9 288.1 576 286.9C575.6 287.3 575.2 287.7 574.7 288Z" fill="white"/>
</g>
</g>
<g opacity="0.3">
<g opacity="0.3">
<path opacity="0.3" d="M356.5 453.4C348.1 458.2 348.1 466.1 356.5 471L499 553.2C501.3 554.5 505 554.5 507.3 553.2C509.6 551.9 509.6 549.7 507.3 548.4L364.8 466.2C361 464 361 460.5 364.8 458.3L378.6 450.3C377.1 448 375.7 445.6 374.3 443.1L356.5 453.4Z" fill="#BBFCF6"/>
<path opacity="0.3" d="M558.3 519L415.8 436.8C407.4 432 393.8 432 385.4 436.8L374.4 443.2C375.8 445.7 377.2 448.1 378.7 450.4L393.8 441.7C397.6 439.5 403.7 439.5 407.5 441.7L550 523.8C552.3 525.1 556 525.1 558.3 523.8C560.6 522.5 560.6 520.3 558.3 519Z" fill="#BBFCF6"/>
</g>
<path opacity="0.3" d="M560 521.5V321.2L410.7 238L389.8 236.6L369.6 249.7L357.3 260.5L502.7 491.1L550.2 519.1L560 521.5Z" fill="url(#paint3_linear)"/>
<path opacity="0.3" d="M504.8 546.8L549.4 521.1V327.5L503.4 348.9L504.8 546.8Z" fill="#47BFB3"/>
<path opacity="0.3" d="M350.2 262V462L507 551.701L509.1 550.8V350.6L350.2 262Z" fill="url(#paint4_linear)"/>
<g opacity="0.3">
<path opacity="0.3" d="M438.4 263.7L407.2 245.8C403.4 244 397.8 244.2 394.3 246.2L365.4 262.9C363.2 264.2 362.3 266 362.7 267.6L441.4 314.6L504.6 353.4L549.4 327.4L438.4 263.7Z" fill="white"/>
</g>
<path opacity="0.3" d="M503.4 347.4V546.1V550.3V554.1C504.8 554.1 506.2 553.7 507.3 553.1C508.4 552.4 509 551.6 509 550.7V350.6L503.4 347.4Z" fill="url(#paint5_linear)"/>
<path opacity="0.3" d="M560 323.7V321.2H559.2L559 322.9L560 323.7Z" fill="white"/>
<path opacity="0.3" d="M509.1 353.1V350.6L508.3 351.7L509.1 353.1Z" fill="white"/>
<g opacity="0.3">
<path opacity="0.3" d="M499 352.9L356.5 270.7C348.1 265.9 348.1 258 356.5 253.1L385.4 236.4C393.8 231.6 407.4 231.6 415.8 236.4L558.3 318.6C560.6 319.9 560.6 322.1 558.3 323.4C556 324.7 552.3 324.7 550 323.4L407.5 241.2C403.7 239 397.6 239 393.8 241.2L364.9 257.9C361.1 260.1 361.1 263.6 364.9 265.8L507.4 348C509.7 349.3 509.7 351.5 507.4 352.8C505 354.3 501.3 354.3 499 352.9Z" fill="#BBFCF6"/>
</g>
<path opacity="0.3" d="M461.9 447.7L387.8 405V330.8L461.9 373.5V447.7Z" fill="white"/>
<g opacity="0.3">
<path opacity="0.3" d="M558.3 323.5C556 324.8 552.3 324.8 550 323.5L407.5 241.3C403.7 239.1 397.6 239.1 393.8 241.3L364.9 258C362.4 259.4 361.6 261.4 362.3 263.3C362.7 262.3 363.5 261.4 364.9 260.7L393.8 244C397.6 241.8 403.7 241.8 407.5 244L550 326.1C552.3 327.4 556 327.4 558.3 326.1C560 325.1 560.5 323.6 559.6 322.4C559.3 322.8 558.9 323.2 558.3 323.5Z" fill="white"/>
<path opacity="0.3" d="M507.3 352.9C505 354.2 501.3 354.2 499 352.9L356.5 270.7C352.9 268.6 350.8 266 350.3 263.2C349.6 266.8 351.7 270.5 356.5 273.3L499 355.6C501.3 356.9 505 356.9 507.3 355.6C509 354.6 509.5 353.1 508.6 351.9C508.3 352.2 507.9 352.6 507.3 352.9Z" fill="white"/>
</g>
</g>
</g>
</g>
<path d="M619.7 267.8L607.8 306.8L577.4 327.8L600.5 337.2L593.6 375.9L619.7 342.2L645.9 345.7L639 315L662.1 278.9L631.6 293.1L619.7 267.8Z" fill="#E8A200"/>
<path d="M676.3 287.1L662.1 278.9L640.2 289.1C640.2 289.1 640.3 303.9 640.2 304.2C640.1 304.6 649.2 305 649.9 305C650.4 305 676.3 287.1 676.3 287.1Z" fill="#D3008D"/>
<path d="M593.6 375.9L607.8 384.1L614.7 345.4L607.8 338.1L600.1 339.4L593.6 375.9Z" fill="#D3008D"/>
<path d="M633.9 276L622 315L591.6 335.9L614.7 345.4L607.8 384.1L633.9 350.4L660.1 353.9L653.2 323.1L676.3 287.1L645.8 301.3L633.9 276Z" fill="#FF2C9C"/>
<path d="M610.5 380.5L617 344L595.9 335.4L623.7 316.201L634.2 281.701L644.7 303.9L674 290.201L676.1 286.9L645.7 301.1L633.9 276L622 315L591.6 336L614.7 345.4L607.8 384.1L610.5 380.5Z" fill="white"/>
<path d="M633.9 276L619.7 267.8L607.8 306.8L622 315L633.9 276Z" fill="#D3008D"/>
<path d="M577.4 327.8L591.6 335.9L622 315L607.8 306.8L577.4 327.8Z" fill="#D3008D"/>
<path d="M621.3 316L623.5 314.7L608.1 305.8L607.8 306.8L606.8 307.5L621.3 316Z" fill="white"/>
<path d="M522.7 323.4L510.8 362.4L480.3 383.3L503.4 392.7L496.5 431.5L522.7 397.8L548.9 401.3L541.9 370.5L565 334.4L534.6 348.6L522.7 323.4Z" fill="#E8A200"/>
<path d="M579.2 342.6L565 334.4L543.1 344.6C543.1 344.6 543.2 359.4 543.1 359.7C543 360.1 552.1 360.5 552.8 360.5C553.4 360.6 579.2 342.6 579.2 342.6Z" fill="#D3008D"/>
<path d="M496.5 431.5L510.7 439.7L517.6 401L510.7 393.7L503 395L496.5 431.5Z" fill="#D3008D"/>
<path d="M536.9 331.5L525 370.5L494.6 391.5L517.6 400.9L510.7 439.6L536.9 405.9L563.1 409.4L556.1 378.701L579.2 342.6L548.8 356.8L536.9 331.5Z" fill="#FF2C9C"/>
<path d="M513.5 436.1L520 399.6L499 391L526.8 371.8L537.3 337.3L547.8 359.5L577.1 345.8L579.2 342.5L548.8 356.7L536.9 331.4L525 370.4L494.6 391.4L517.7 400.8L510.8 439.5L513.5 436.1Z" fill="white"/>
<path d="M536.9 331.5L522.7 323.4L510.8 362.4L525 370.5L536.9 331.5Z" fill="#D3008D"/>
<path d="M480.3 383.3L494.6 391.5L525 370.5L510.8 362.4L480.3 383.3Z" fill="#D3008D"/>
<path d="M524.3 371.5L526.5 370.3L511.1 361.3L510.8 362.4L509.8 363.1L524.3 371.5Z" fill="white"/>
<path d="M425.6 378.9L413.8 417.9L383.3 438.9L406.4 448.3L399.5 487L425.6 453.3L451.8 456.8L444.9 426.1L468 390L437.5 404.2L425.6 378.9Z" fill="#E8A200"/>
<path d="M482.2 398.1L468 390L446 400.201C446 400.201 446.1 415 446 415.3C445.9 415.7 455 416.1 455.7 416.1C456.3 416.1 482.2 398.1 482.2 398.1Z" fill="#D3008D"/>
<path d="M399.5 487L413.7 495.2L420.6 456.5L413.7 449.2L406 450.5L399.5 487Z" fill="#D3008D"/>
<path d="M439.9 387.101L428 426.101L397.5 447.001L420.6 456.501L413.7 495.201L439.9 461.501L466 465.001L459.1 434.201L482.2 398.101L451.7 412.401L439.9 387.101Z" fill="#FF2C9C"/>
<path d="M416.5 491.6L423 455.1L401.9 446.5L429.7 427.3L440.2 392.8L450.7 415L480 401.3L482.1 398L451.7 412.2L439.8 386.9L427.9 425.9L397.5 446.9L420.6 456.3L413.7 495L416.5 491.6Z" fill="white"/>
<path d="M439.9 387.1L425.6 378.9L413.8 417.9L428 426.1L439.9 387.1Z" fill="#D3008D"/>
<path d="M383.3 438.9L397.5 447L428 426.1L413.8 417.9L383.3 438.9Z" fill="#D3008D"/>
<path d="M427.3 427.1L429.4 425.8L414.1 416.9L413.8 417.9L412.7 418.6L427.3 427.1Z" fill="white"/>
<path d="M552.2 175.7L540.3 214.7L509.9 235.7L533 245.1L526 283.8L552.2 250.1L578.4 253.6L571.5 222.9L594.5 186.8L564.1 201L552.2 175.7Z" fill="#E8A200"/>
<path d="M608.8 194.9L594.6 186.7L572.6 197C572.6 197 572.7 211.8 572.6 212.1C572.5 212.5 581.6 212.9 582.3 212.9C582.9 212.9 608.8 194.9 608.8 194.9Z" fill="#D3008D"/>
<path d="M526 283.8L540.2 292L547.1 253.3L540.2 246L532.5 247.3L526 283.8Z" fill="#D3008D"/>
<path d="M566.4 183.9L554.5 222.9L524.1 243.8L547.2 253.2L540.2 292L566.4 258.3L592.6 261.8L585.7 231L608.8 194.9L578.3 209.1L566.4 183.9Z" fill="#FF2C9C"/>
<path d="M543 288.4L549.5 251.9L528.4 243.3L556.2 224.1L566.7 189.6L577.2 211.8L606.5 198.1L608.6 194.8L578.2 209L566.3 183.7L554.4 222.7L524 243.7L547.1 253.1L540.2 291.8L543 288.4Z" fill="white"/>
<path d="M566.4 183.9L552.2 175.7L540.3 214.7L554.5 222.9L566.4 183.9Z" fill="#D3008D"/>
<path d="M509.9 235.7L524.1 243.8L554.5 222.9L540.3 214.7L509.9 235.7Z" fill="#D3008D"/>
<path d="M553.8 223.9L556 222.6L540.6 213.7L540.3 214.7L539.3 215.4L553.8 223.9Z" fill="white"/>
<path d="M455.2 231.3L443.3 270.3L412.8 291.2L435.9 300.6L429 339.4L455.2 305.7L481.3 309.1L474.4 278.4L497.5 242.3L467.1 256.5L455.2 231.3Z" fill="#E8A200"/>
<path d="M511.7 250.5L497.5 242.3L475.6 252.5C475.6 252.5 475.7 267.3 475.6 267.6C475.5 268 484.6 268.4 485.3 268.4C486 268.4 511.7 250.5 511.7 250.5Z" fill="#D3008D"/>
<path d="M429 339.4L443.2 347.6L450.1 308.9L443.2 301.6L435.5 302.9L429 339.4Z" fill="#D3008D"/>
<path d="M469.4 239.4L457.5 278.4L427 299.4L450.1 308.8L443.2 347.5L469.4 313.8L495.5 317.3L488.6 286.6L511.7 250.5L481.3 264.7L469.4 239.4Z" fill="#FF2C9C"/>
<path d="M446 343.9L452.5 307.4L431.4 298.8L459.2 279.6L469.7 245.1L480.2 267.3L509.5 253.6L511.6 250.3L481.2 264.5L469.3 239.2L457.4 278.2L427 299.2L450.1 308.6L443.2 347.3L446 343.9Z" fill="white"/>
<path d="M469.4 239.4L455.2 231.3L443.3 270.3L457.5 278.4L469.4 239.4Z" fill="#D3008D"/>
<path d="M412.8 291.2L427 299.4L457.5 278.4L443.3 270.3L412.8 291.2Z" fill="#D3008D"/>
<path d="M456.8 279.4L458.9 278.2L443.6 269.2L443.3 270.3L442.3 271L456.8 279.4Z" fill="white"/>
<path d="M489.3 306.8C480.9 311.6 480.9 319.5 489.3 324.4L631.8 406.6C634.1 407.9 637.8 407.9 640.1 406.6C642.4 405.3 642.4 403.1 640.1 401.8L497.6 319.6C493.8 317.4 493.8 313.9 497.6 311.7L511.4 303.7C509.9 301.4 508.5 299 507.1 296.5L489.3 306.8Z" fill="#BBFCF6"/>
<path d="M691.1 372.3L548.6 290.1C540.2 285.3 526.6 285.3 518.2 290.1L507.2 296.5C508.6 299 510 301.4 511.5 303.7L526.6 295C530.4 292.8 536.5 292.8 540.3 295L682.8 377.2C685.1 378.5 688.8 378.5 691.1 377.2C693.4 375.8 693.4 373.7 691.1 372.3Z" fill="#BBFCF6"/>
<path d="M692.8 374.9V174.6L543.5 91.4L522.6 90L502.4 103.1L490 113.9L635.5 344.5L683 372.5L692.8 374.9Z" fill="url(#paint6_linear)"/>
<path d="M637.6 400.2L682.2 374.4V180.9L636.2 202.2L637.6 400.2Z" fill="#47BFB3"/>
<path d="M483 115.4V315.4L639.7 405L641.8 404.2V203.9L483 115.4Z" fill="url(#paint7_linear)"/>
<path d="M571.2 117.1L540 99.2002C536.2 97.4002 530.6 97.6002 527.1 99.6002L498.2 116.3C496 117.6 495.1 119.4 495.5 121L574.2 168L637.4 206.8L682.2 180.8L571.2 117.1Z" fill="white"/>
<path d="M636.2 200.8V399.5V403.7V407.5C637.6 407.5 639 407.1 640.1 406.5C641.2 405.8 641.8 405 641.8 404.1V203.9L636.2 200.8Z" fill="url(#paint8_linear)"/>
<path d="M692.8 177.1V174.6H692L691.7 176.3L692.8 177.1Z" fill="white"/>
<path d="M641.8 206.5V204L641 205L641.8 206.5Z" fill="white"/>
<path d="M631.7 206.3L489.3 124C480.9 119.2 480.9 111.3 489.3 106.4L518.2 89.7001C526.6 84.9001 540.2 84.9001 548.6 89.7001L691.1 172C693.4 173.3 693.4 175.5 691.1 176.8C688.8 178.1 685.1 178.1 682.8 176.8L540.3 94.6001C536.5 92.4001 530.4 92.4001 526.6 94.6001L497.7 111.3C493.9 113.5 493.9 117 497.7 119.2L640.2 201.4C642.5 202.7 642.5 204.9 640.2 206.2C637.8 207.6 634.1 207.6 631.7 206.3Z" fill="#BBFCF6"/>
<path d="M594.6 301.1L520.6 258.4V184.2L594.6 226.9V301.1Z" fill="white"/>
<path d="M691.1 176.9C688.8 178.2 685.1 178.2 682.8 176.9L540.3 94.6002C536.5 92.4002 530.4 92.4002 526.6 94.6002L497.7 111.3C495.2 112.7 494.4 114.7 495.1 116.6C495.5 115.6 496.3 114.7 497.7 114L526.6 97.3002C530.4 95.1002 536.5 95.1002 540.3 97.3002L682.8 179.5C685.1 180.8 688.8 180.8 691.1 179.5C692.8 178.5 693.3 177 692.4 175.8C692 176.2 691.6 176.5 691.1 176.9Z" fill="white"/>
<path d="M640.1 206.3C637.8 207.6 634.1 207.6 631.8 206.3L489.3 124C485.7 121.9 483.6 119.3 483.1 116.5C482.4 120.1 484.5 123.8 489.3 126.6L631.8 208.8C634.1 210.1 637.8 210.1 640.1 208.8C641.8 207.8 642.3 206.3 641.4 205.1C641.1 205.6 640.7 206 640.1 206.3Z" fill="white"/>
<path d="M423.8 388.5C415.4 393.3 415.4 401.2 423.8 406.1L566.3 488.3C568.6 489.6 572.3 489.6 574.6 488.3C576.9 487 576.9 484.8 574.6 483.5L432.1 401.3C428.3 399.1 428.3 395.6 432.1 393.4L445.9 385.4C444.4 383.1 443 380.7 441.6 378.2L423.8 388.5Z" fill="#FF2C9C"/>
<path d="M625.6 454L483.1 371.8C474.7 367 461.1 367 452.7 371.8L441.7 378.2C443.1 380.7 444.5 383.1 446 385.4L461.1 376.7C464.9 374.5 471 374.5 474.8 376.7L617.3 458.9C619.6 460.2 623.3 460.2 625.6 458.9C627.9 457.5 627.9 455.4 625.6 454Z" fill="#D3008D"/>
<path d="M627.3 456.6V256.3L478 173.1L457.1 171.7L436.9 184.8L424.5 195.5L570 426.2L617.5 454.2L627.3 456.6Z" fill="#D3008D"/>
<path d="M572.1 481.9L616.7 456.1V262.5L570.7 283.9L572.1 481.9Z" fill="#E573B5"/>
<path d="M417.5 197.1V397.1L574.2 486.7L576.3 485.9V285.6L417.5 197.1Z" fill="url(#paint9_linear)"/>
<path d="M505.7 198.8L474.6 180.9C470.8 179.1 465.2 179.3 461.7 181.3L432.8 198C430.6 199.3 429.7 201.1 430.1 202.7L508.8 249.7L572 288.5L616.8 262.5L505.7 198.8Z" fill="white"/>
<path d="M570.7 282.5V481.2V485.4V489.2C572.1 489.2 573.5 488.8 574.6 488.2C575.7 487.5 576.3 486.7 576.3 485.8V285.6L570.7 282.5Z" fill="#D3008D"/>
<path d="M627.3 258.8V256.3H626.5L626.2 258L627.3 258.8Z" fill="white"/>
<path d="M576.3 288.2V285.6L575.6 286.7L576.3 288.2Z" fill="white"/>
<path d="M566.3 288L423.8 205.8C415.4 201 415.4 193.1 423.8 188.2L452.7 171.5C461.1 166.7 474.7 166.7 483.1 171.5L625.6 253.7C627.9 255 627.9 257.2 625.6 258.5C623.3 259.8 619.6 259.8 617.3 258.5L474.8 176.3C471 174.1 464.9 174.1 461.1 176.3L432.1 193C428.3 195.2 428.3 198.7 432.1 200.9L574.6 283.1C576.9 284.4 576.9 286.6 574.6 287.9C572.3 289.3 568.6 289.3 566.3 288Z" fill="#FF2C9C"/>
<path d="M529.1 382.8L455.1 340.1V265.8L529.1 308.6V382.8Z" fill="white"/>
<path d="M625.6 258.6C623.3 259.9 619.6 259.9 617.3 258.6L474.8 176.4C471 174.2 464.9 174.2 461.1 176.4L432.1 193C429.6 194.4 428.8 196.4 429.5 198.3C429.9 197.3 430.7 196.4 432.1 195.7L461 179C464.8 176.8 470.9 176.8 474.7 179L617.2 261.2C619.5 262.5 623.2 262.5 625.5 261.2C627.2 260.2 627.7 258.7 626.8 257.5C626.5 257.9 626.1 258.2 625.6 258.6Z" fill="white"/>
<path d="M574.6 288C572.3 289.3 568.6 289.3 566.3 288L423.8 205.8C420.2 203.7 418.1 201.1 417.6 198.3C416.9 201.9 419 205.6 423.8 208.4L566.3 290.6C568.6 291.9 572.3 291.9 574.6 290.6C576.3 289.6 576.8 288.1 575.9 286.9C575.6 287.3 575.2 287.7 574.6 288Z" fill="white"/>
<path d="M356.5 450.1C348.1 454.9 348.1 462.8 356.5 467.7L499 549.9C501.3 551.2 505 551.2 507.3 549.9C509.6 548.6 509.6 546.4 507.3 545.1L364.8 462.9C361 460.7 361 457.2 364.8 455L378.6 447C377.1 444.7 375.7 442.3 374.3 439.8L356.5 450.1Z" fill="#BBFCF6"/>
<path d="M558.3 515.7L415.8 433.5C407.4 428.7 393.8 428.7 385.4 433.5L374.4 439.9C375.8 442.4 377.2 444.8 378.7 447.1L393.8 438.4C397.6 436.2 403.7 436.2 407.5 438.4L550 520.6C552.3 521.9 556 521.9 558.3 520.6C560.6 519.2 560.6 517 558.3 515.7Z" fill="#BBFCF6"/>
<path d="M560 518.3V318L410.7 234.7L389.8 233.4L369.6 246.4L357.3 257.2L502.7 487.9L550.2 515.9L560 518.3Z" fill="url(#paint10_linear)"/>
<path d="M504.8 543.6L549.4 517.8V324.2L503.4 345.6L504.8 543.6Z" fill="#47BFB3"/>
<path d="M350.2 258.8V458.8L506.9 548.4L509 547.6V347.3L350.2 258.8Z" fill="url(#paint11_linear)"/>
<path d="M438.4 260.4L407.3 242.5C403.5 240.7 397.9 240.9 394.4 242.9L365.5 259.6C363.3 260.9 362.4 262.7 362.8 264.3L441.5 311.3L504.7 350.1L549.5 324.1L438.4 260.4Z" fill="white"/>
<path d="M503.4 344.1V419V542.8V547V550.8C504.8 550.8 506.2 550.4 507.3 549.8C508.4 549.1 509 548.3 509 547.4V347.3L503.4 344.1Z" fill="url(#paint12_linear)"/>
<path d="M560 320.4V318H559.2L559 319.6L560 320.4Z" fill="white"/>
<path d="M509 349.9V347.3L508.3 348.4L509 349.9Z" fill="white"/>
<path d="M499 349.6L356.5 267.4C348.1 262.6 348.1 254.7 356.5 249.8L385.4 233.1C393.8 228.3 407.4 228.3 415.8 233.1L558.3 315.3C560.6 316.6 560.6 318.8 558.3 320.1C556 321.4 552.3 321.4 550 320.1L407.5 238C403.7 235.8 397.6 235.8 393.8 238L364.9 254.7C361.1 256.9 361.1 260.4 364.9 262.6L507.4 344.8C509.7 346.1 509.7 348.3 507.4 349.6C505 351 501.3 351 499 349.6Z" fill="#BBFCF6"/>
<path d="M461.8 444.5L387.8 401.7V327.5L461.8 370.3V444.5Z" fill="white"/>
<path d="M558.3 320.2C556 321.5 552.3 321.5 550 320.2L407.5 238C403.7 235.8 397.6 235.8 393.8 238L364.9 254.7C362.4 256.1 361.6 258.1 362.3 260C362.7 259 363.5 258.1 364.9 257.4L393.8 240.7C397.6 238.5 403.7 238.5 407.5 240.7L550 322.9C552.3 324.2 556 324.2 558.3 322.9C560 321.9 560.5 320.4 559.6 319.2C559.2 319.5 558.8 319.9 558.3 320.2Z" fill="white"/>
<path d="M507.3 349.6C505 350.9 501.3 350.9 499 349.6L356.5 267.4C352.9 265.3 350.8 262.7 350.3 259.9C349.6 263.5 351.7 267.2 356.5 270L499 352.3C501.3 353.6 505 353.6 507.3 352.3C509 351.3 509.5 349.8 508.6 348.6C508.3 349 507.9 349.3 507.3 349.6Z" fill="white"/>
<path opacity="0.9" d="M467.5 394.7L425.5 420.9L467.5 444.5L512.1 420.9L467.5 394.7Z" fill="#42E8E0"/>
<path d="M467.5 623.7L512.1 600.1V420.9L467.5 444.5V623.7Z" fill="#47BFB3"/>
<path d="M425.5 420.9V600.1L467.5 623.7V444.5L425.5 420.9Z" fill="#42E8E0"/>
<path d="M585.6 213.9L543.7 240.1L585.6 263.7L630.2 240.1L585.6 213.9Z" fill="#42E8E0"/>
<path d="M585.6 551.4L630.2 527.8V240.1L585.6 263.7V551.4Z" fill="#47BFB3"/>
<path d="M543.7 240.1V527.8L585.6 551.4V263.7L543.7 240.1Z" fill="#42E8E0"/>
<path opacity="0.9" d="M708.6 37.8999L666.6 64.0999L708.6 87.6999L753.2 64.0999L708.6 37.8999Z" fill="#42E8E0"/>
<path d="M708.6 486.3L753.2 462.7V64.1001L708.6 87.7001V486.3Z" fill="#47BFB3"/>
<path d="M666.6 64.1001V462.7L708.6 486.3V87.7001L666.6 64.1001Z" fill="#42E8E0"/>
</g>
<defs>
<linearGradient id="paint0_linear" x1="1299.33" y1="275.369" x2="1300.53" y2="275.369" gradientUnits="userSpaceOnUse">
<stop stop-color="#19C9BC"/>
<stop offset="0.1157" stop-color="#35D1C8"/>
<stop offset="0.2824" stop-color="#57DBD6"/>
<stop offset="0.4531" stop-color="#71E2E2"/>
<stop offset="0.6272" stop-color="#84E8EA"/>
<stop offset="0.8067" stop-color="#8FEBEE"/>
<stop offset="1" stop-color="#93ECF0"/>
</linearGradient>
<linearGradient id="paint1_linear" x1="1299.33" y1="303.138" x2="1300.53" y2="303.138" gradientUnits="userSpaceOnUse">
<stop stop-color="#19C9BC"/>
<stop offset="0.1157" stop-color="#35D1C8"/>
<stop offset="0.2824" stop-color="#57DBD6"/>
<stop offset="0.4531" stop-color="#71E2E2"/>
<stop offset="0.6272" stop-color="#84E8EA"/>
<stop offset="0.8067" stop-color="#8FEBEE"/>
<stop offset="1" stop-color="#93ECF0"/>
</linearGradient>
<linearGradient id="paint2_linear" x1="1299.33" y1="347.079" x2="1300.54" y2="347.079" gradientUnits="userSpaceOnUse">
<stop stop-color="#19C9BC"/>
<stop offset="0.1157" stop-color="#35D1C8" stop-opacity="0.9884"/>
<stop offset="0.2824" stop-color="#57DBD6" stop-opacity="0.9718"/>
<stop offset="0.4531" stop-color="#71E2E2" stop-opacity="0.9547"/>
<stop offset="0.6272" stop-color="#84E8EA" stop-opacity="0.9373"/>
<stop offset="0.8067" stop-color="#8FEBEE" stop-opacity="0.9193"/>
<stop offset="1" stop-color="#93ECF0" stop-opacity="0.9"/>
</linearGradient>
<linearGradient id="paint3_linear" x1="1299.33" y1="379.087" x2="1300.53" y2="379.087" gradientUnits="userSpaceOnUse">
<stop stop-color="#19C9BC"/>
<stop offset="0.1157" stop-color="#35D1C8"/>
<stop offset="0.2824" stop-color="#57DBD6"/>
<stop offset="0.4531" stop-color="#71E2E2"/>
<stop offset="0.6272" stop-color="#84E8EA"/>
<stop offset="0.8067" stop-color="#8FEBEE"/>
<stop offset="1" stop-color="#93ECF0"/>
</linearGradient>
<linearGradient id="paint4_linear" x1="1299.33" y1="406.856" x2="1300.53" y2="406.856" gradientUnits="userSpaceOnUse">
<stop stop-color="#19C9BC"/>
<stop offset="0.1157" stop-color="#35D1C8"/>
<stop offset="0.2824" stop-color="#57DBD6"/>
<stop offset="0.4531" stop-color="#71E2E2"/>
<stop offset="0.6272" stop-color="#84E8EA"/>
<stop offset="0.8067" stop-color="#8FEBEE"/>
<stop offset="1" stop-color="#93ECF0"/>
</linearGradient>
<linearGradient id="paint5_linear" x1="1299.33" y1="450.797" x2="1300.53" y2="450.797" gradientUnits="userSpaceOnUse">
<stop stop-color="#19C9BC"/>
<stop offset="0.1157" stop-color="#35D1C8" stop-opacity="0.9884"/>
<stop offset="0.2824" stop-color="#57DBD6" stop-opacity="0.9718"/>
<stop offset="0.4531" stop-color="#71E2E2" stop-opacity="0.9547"/>
<stop offset="0.6272" stop-color="#84E8EA" stop-opacity="0.9373"/>
<stop offset="0.8067" stop-color="#8FEBEE" stop-opacity="0.9193"/>
<stop offset="1" stop-color="#93ECF0" stop-opacity="0.9"/>
</linearGradient>
<linearGradient id="paint6_linear" x1="1299.33" y1="232.452" x2="1300.53" y2="232.452" gradientUnits="userSpaceOnUse">
<stop stop-color="#19C9BC"/>
<stop offset="0.1157" stop-color="#35D1C8"/>
<stop offset="0.2824" stop-color="#57DBD6"/>
<stop offset="0.4531" stop-color="#71E2E2"/>
<stop offset="0.6272" stop-color="#84E8EA"/>
<stop offset="0.8067" stop-color="#8FEBEE"/>
<stop offset="1" stop-color="#93ECF0"/>
</linearGradient>
<linearGradient id="paint7_linear" x1="1299.33" y1="260.221" x2="1300.53" y2="260.221" gradientUnits="userSpaceOnUse">
<stop stop-color="#19C9BC"/>
<stop offset="0.1157" stop-color="#35D1C8"/>
<stop offset="0.2824" stop-color="#57DBD6"/>
<stop offset="0.4531" stop-color="#71E2E2"/>
<stop offset="0.6272" stop-color="#84E8EA"/>
<stop offset="0.8067" stop-color="#8FEBEE"/>
<stop offset="1" stop-color="#93ECF0"/>
</linearGradient>
<linearGradient id="paint8_linear" x1="1299.33" y1="304.162" x2="1300.53" y2="304.162" gradientUnits="userSpaceOnUse">
<stop stop-color="#19C9BC"/>
<stop offset="0.1157" stop-color="#35D1C8" stop-opacity="0.9884"/>
<stop offset="0.2824" stop-color="#57DBD6" stop-opacity="0.9718"/>
<stop offset="0.4531" stop-color="#71E2E2" stop-opacity="0.9547"/>
<stop offset="0.6272" stop-color="#84E8EA" stop-opacity="0.9373"/>
<stop offset="0.8067" stop-color="#8FEBEE" stop-opacity="0.9193"/>
<stop offset="1" stop-color="#93ECF0" stop-opacity="0.9"/>
</linearGradient>
<linearGradient id="paint9_linear" x1="1299.33" y1="341.912" x2="1300.53" y2="341.912" gradientUnits="userSpaceOnUse">
<stop stop-color="#D3008D"/>
<stop offset="0.1186" stop-color="#DD0A91"/>
<stop offset="0.3984" stop-color="#F01D97"/>
<stop offset="0.688" stop-color="#FB289B"/>
<stop offset="1" stop-color="#FF2C9C"/>
</linearGradient>
<linearGradient id="paint10_linear" x1="1299.33" y1="375.81" x2="1300.53" y2="375.81" gradientUnits="userSpaceOnUse">
<stop stop-color="#19C9BC"/>
<stop offset="0.1157" stop-color="#35D1C8"/>
<stop offset="0.2824" stop-color="#57DBD6"/>
<stop offset="0.4531" stop-color="#71E2E2"/>
<stop offset="0.6272" stop-color="#84E8EA"/>
<stop offset="0.8067" stop-color="#8FEBEE"/>
<stop offset="1" stop-color="#93ECF0"/>
</linearGradient>
<linearGradient id="paint11_linear" x1="1299.33" y1="403.578" x2="1300.53" y2="403.578" gradientUnits="userSpaceOnUse">
<stop stop-color="#19C9BC"/>
<stop offset="0.1157" stop-color="#35D1C8"/>
<stop offset="0.2824" stop-color="#57DBD6"/>
<stop offset="0.4531" stop-color="#71E2E2"/>
<stop offset="0.6272" stop-color="#84E8EA"/>
<stop offset="0.8067" stop-color="#8FEBEE"/>
<stop offset="1" stop-color="#93ECF0"/>
</linearGradient>
<linearGradient id="paint12_linear" x1="1299.33" y1="447.52" x2="1300.53" y2="447.52" gradientUnits="userSpaceOnUse">
<stop stop-color="#19C9BC"/>
<stop offset="0.1157" stop-color="#35D1C8" stop-opacity="0.9884"/>
<stop offset="0.2824" stop-color="#57DBD6" stop-opacity="0.9718"/>
<stop offset="0.4531" stop-color="#71E2E2" stop-opacity="0.9547"/>
<stop offset="0.6272" stop-color="#84E8EA" stop-opacity="0.9373"/>
<stop offset="0.8067" stop-color="#8FEBEE" stop-opacity="0.9193"/>
<stop offset="1" stop-color="#93ECF0" stop-opacity="0.9"/>
</linearGradient>
<clipPath id="clip0">
<rect width="1069.1" height="749.9" fill="white"/>
</clipPath>
</defs>
</svg>
