<svg xmlns="http://www.w3.org/2000/svg" xmlns:xlink="http://www.w3.org/1999/xlink" viewBox="0 0 364.1 518.86"><defs><style>.cls-1{opacity:0.3;fill:url(#linear-gradient);}.cls-2{fill:#16326a;}.cls-2,.cls-3{opacity:0.8;}.cls-3{fill:#1d438c;}.cls-4{fill:none;stroke:#b9b9b9;stroke-linecap:round;stroke-width:2px;}.cls-5{fill:#b9b9b9;}.cls-6{fill:#6f9aed;}.cls-7{fill:#d9e1f0;}</style><linearGradient id="linear-gradient" x1="261.59" y1="-358.42" x2="261.59" y2="45.87" gradientTransform="translate(-68.5 465.1) rotate(-14.92)" gradientUnits="userSpaceOnUse"><stop offset="0" stop-color="#f7f7f9" stop-opacity="0"/><stop offset="0.26" stop-color="#a3b0c6" stop-opacity="0.34"/><stop offset="0.57" stop-color="#4a6590" stop-opacity="0.7"/><stop offset="0.83" stop-color="#14376f" stop-opacity="0.92"/><stop offset="1" stop-color="#002663"/></linearGradient></defs><title>Asset 1</title><g id="Layer_2" data-name="Layer 2"><g id="Layer_1-2" data-name="Layer 1"><path class="cls-1" d="M282.92,332.81,4.72,492.87c-2.61,1.5-4.72.28-4.72-2.74L.46,168.88A10.46,10.46,0,0,1,5.2,160.7L283.39.64c2.62-1.5,4.73-.28,4.73,2.74l-.46,321.25A10.46,10.46,0,0,1,282.92,332.81Z"/><g id="bg_dcr2" data-name="bg dcr2"><path id="Path_658" data-name="Path 658" class="cls-2" d="M111,379.91C93.27,366,75.41,398.51,70.62,412.43c-6.88,18.08-21.57,62.29-25.27,94.43L311.53,353.6C306.14,245,291.94,239,287.38,235.49c-17.72-13.59-46.11,28.7-57.89,59.65-13.19,34.66-22,27.3-26.91,17.91-27.11-46.52-57.5,15.36-68.12,48.51C126.52,386.32,116.42,384.17,111,379.91Z"/><path id="Path_659" data-name="Path 659" class="cls-3" d="M150.06,406.13c-17.75-10.06-35.63,18.93-40.42,31.07C102.75,453,88,491.52,84.34,518.86L352.92,364.22c.87-14.93-1.93-64-3.93-73.39-2.5-11.8-4.84-24.12-12.57-34.89-16.32-22.74-48.58,29.85-58.49,55.91-11.78,31-31.18,37-36.14,29.6-27.17-36.55-51.85,10.06-62.48,38.89C171.37,401.87,155.5,409.21,150.06,406.13Z"/><path id="Path_660" data-name="Path 660" class="cls-4" d="M145,304l-.19,168.57"/><path id="Path_661" data-name="Path 661" class="cls-4" d="M224.42,258.24l-.18,168.57"/><path id="Path_662" data-name="Path 662" class="cls-4" d="M315.36,205.88l-.19,168.57"/><ellipse id="Ellipse_15" data-name="Ellipse 15" class="cls-5" cx="145.06" cy="471.62" rx="3.82" ry="2.21" transform="translate(-335.78 360.88) rotate(-59.93)"/><ellipse id="Ellipse_16" data-name="Ellipse 16" class="cls-5" cx="224.25" cy="426.02" rx="3.82" ry="2.21" transform="translate(-256.8 406.66) rotate(-59.93)"/><ellipse id="Ellipse_17" data-name="Ellipse 17" class="cls-5" cx="315.17" cy="373.67" rx="3.82" ry="2.21" transform="translate(-166.12 459.23) rotate(-59.93)"/><path id="Path_663" data-name="Path 663" class="cls-6" d="M124.54,368.64l.18.74h0Zm93.53-42.38.21-1Zm62.33-55.35.4.46Zm60.19-55.43.18-.95Zm22.59-.78c.3,0,.67-.35.82-.79,0,0,0-.1,0-.15.15-.51,0-.93-.32-1ZM91.43,411.89c-.24.52-.22,1,0,1.22s.59,0,.83-.42l.09-.18Zm33.3-42.52c18.18-18.34,50-37,93.13-42.15l.42-1.91c-43.29,5.15-75.4,23.9-93.94,42.6Zm93.13-42.15c15.38-1.83,39.64-17.42,62.94-55.84l-.81-.93c-23,37.88-46.76,53.08-61.71,54.86Zm62.94-55.84c26.35-43.45,52.48-53.55,59.61-54.94l.36-1.91c-7.4,1.44-34,11.79-60.78,55.92Zm59.61-54.94a110.47,110.47,0,0,1,22.77-1.74l.54-1.92a109.5,109.5,0,0,0-23,1.75Zm-216,151.46a196.51,196.51,0,0,0-16,17.91c-6.21,7.82-12.62,17-16.93,26.08l1,.62c4.16-8.71,10.39-17.71,16.54-25.45a195.7,195.7,0,0,1,15.78-17.67Z"/><ellipse id="Ellipse_18" data-name="Ellipse 18" class="cls-7" cx="224.37" cy="323.11" rx="7.65" ry="4.42" transform="translate(-167.67 355.42) rotate(-59.93)"/><ellipse id="Ellipse_19" data-name="Ellipse 19" class="cls-6" cx="224.36" cy="322.91" rx="4.78" ry="2.76" transform="translate(-167.51 355.31) rotate(-59.93)"/></g></g></g></svg>