<svg width="365" height="519" viewBox="0 0 365 519" fill="none" xmlns="http://www.w3.org/2000/svg">
<rect x="-35" y="189" width="434" height="416" fill="#F7F7F9"/>
<path opacity="0.3" d="M282.9 332.8L4.7 492.9C2.1 494.4 0 493.2 0 490.2L0.5 168.9C0.5 165.9 2.6 162.2 5.2 160.7L283.4 0.599993C286 -0.900007 288.1 0.299993 288.1 3.29999L287.6 324.6C287.7 327.6 285.5 331.3 282.9 332.8Z" fill="url(#paint0_linear)"/>
<path opacity="0.8" d="M111.007 379.943C93.3072 366.043 75.4072 398.543 70.6072 412.443C63.7072 430.543 49.0071 474.743 45.3071 506.843L311.507 353.543C306.107 244.943 291.907 238.943 287.407 235.443C269.707 221.843 241.307 264.143 229.507 295.043C216.307 329.743 207.507 322.343 202.607 312.943C175.507 266.443 145.107 328.343 134.507 361.443C126.507 386.343 116.407 384.143 111.007 379.943Z" fill="#16326A"/>
<path opacity="0.8" d="M150.107 406.143C132.407 396.043 114.507 425.043 109.707 437.243C102.807 453.043 88.1072 491.543 84.4072 518.943L353.007 364.343C353.907 349.443 351.107 300.343 349.107 290.943C346.607 279.143 344.307 266.843 336.507 256.043C320.207 233.343 287.907 285.943 278.007 311.943C266.207 342.943 246.807 348.943 241.907 341.543C214.707 305.043 190.007 351.643 179.407 380.443C171.407 401.843 155.507 409.243 150.107 406.143Z" fill="#1D438C"/>
<path d="M145.007 303.943L144.807 472.543" stroke="#B9B9B9" stroke-width="2" stroke-linecap="round"/>
<path d="M224.407 258.243L224.207 426.843" stroke="#B9B9B9" stroke-width="2" stroke-linecap="round"/>
<path d="M315.407 205.843L315.207 374.443" stroke="#B9B9B9" stroke-width="2" stroke-linecap="round"/>
<path d="M146.851 472.835C147.903 471.018 147.903 469.052 146.851 468.444C145.799 467.835 144.094 468.814 143.043 470.63C141.992 472.447 141.992 474.413 143.043 475.021C144.095 475.63 145.8 474.651 146.851 472.835Z" fill="#B9B9B9"/>
<path d="M226.042 427.224C227.094 425.408 227.094 423.442 226.042 422.833C224.99 422.224 223.286 423.203 222.234 425.02C221.183 426.836 221.183 428.802 222.234 429.411C223.286 430.02 224.991 429.041 226.042 427.224Z" fill="#B9B9B9"/>
<path d="M316.963 374.778C318.015 372.962 318.015 370.996 316.963 370.387C315.912 369.778 314.207 370.757 313.155 372.574C312.104 374.39 312.104 376.356 313.156 376.965C314.207 377.574 315.912 376.595 316.963 374.778Z" fill="#B9B9B9"/>
<path d="M124.507 368.643L124.707 369.343L124.507 368.643ZM218.107 326.243L218.307 325.243L218.107 326.243ZM280.407 270.943L280.807 271.443L280.407 270.943ZM340.607 215.443L340.807 214.443L340.607 215.443ZM363.207 214.743C363.507 214.743 363.907 214.343 364.007 213.943C364.007 213.843 364.007 213.843 364.007 213.843C364.207 213.343 364.007 212.943 363.707 212.843L363.207 214.743ZM91.4072 411.843C91.2072 412.343 91.2072 412.843 91.5072 413.043C91.7072 413.243 92.1071 413.043 92.3071 412.643C92.3071 412.543 92.4072 412.543 92.4072 412.443L91.4072 411.843ZM124.707 369.343C142.907 351.043 174.707 332.343 217.807 327.243L218.207 325.343C174.907 330.543 142.807 349.243 124.307 367.943L124.707 369.343ZM217.907 327.243C233.307 325.443 257.507 309.843 280.807 271.443L280.007 270.543C257.007 308.443 233.207 323.643 218.307 325.443L217.907 327.243ZM280.807 271.343C307.207 227.943 333.307 217.843 340.407 216.443L340.807 214.543C333.407 215.943 306.807 226.343 280.007 270.443L280.807 271.343ZM340.407 216.443C348.207 215.043 355.807 214.443 363.207 214.743L363.707 212.843C356.307 212.643 348.607 213.143 340.707 214.643L340.407 216.443ZM124.307 367.943C118.707 373.443 113.407 379.443 108.307 385.843C102.107 393.643 95.7072 402.843 91.4072 411.943L92.4072 412.543C96.6072 403.843 102.807 394.843 108.907 387.043C113.907 380.743 119.207 374.843 124.707 369.343L124.307 367.943Z" fill="#6F9AED"/>
<path d="M228.113 325.353C230.216 321.72 230.216 317.788 228.112 316.57C226.009 315.353 222.599 317.311 220.497 320.944C218.394 324.577 218.394 328.509 220.497 329.726C222.6 330.943 226.01 328.985 228.113 325.353Z" fill="#D9E1F0"/>
<path d="M226.719 324.347C228.048 322.053 228.039 319.565 226.701 318.79C225.362 318.016 223.201 319.247 221.873 321.542C220.544 323.836 220.553 326.324 221.891 327.099C223.23 327.874 225.391 326.642 226.719 324.347Z" fill="#6F9AED"/>
<defs>
<linearGradient id="paint0_linear" x1="92.0272" y1="51.4201" x2="196.091" y2="442.084" gradientUnits="userSpaceOnUse">
<stop offset="4.27865e-07" stop-color="#F7F7F9" stop-opacity="0"/>
<stop offset="0.2066" stop-color="#B2BDCF" stop-opacity="0.2066"/>
<stop offset="0.4168" stop-color="#7388A9" stop-opacity="0.4168"/>
<stop offset="0.6091" stop-color="#425E8B" stop-opacity="0.6091"/>
<stop offset="0.7764" stop-color="#1E3F75" stop-opacity="0.7764"/>
<stop offset="0.9124" stop-color="#082D68" stop-opacity="0.9124"/>
<stop offset="1" stop-color="#002663"/>
</linearGradient>
</defs>
</svg>
